#tb 0: 1/25
0,          0,          0,        1,   599040, 0x57369bf4
0,          2,          2,        1,   599040, 0x319aab9c
0,          3,          3,        1,   599040, 0xbc1b7698
0,          4,          4,        1,   599040, 0x05cea248
0,          5,          5,        1,   599040, 0xdca73743
0,          6,          6,        1,   599040, 0x5b5a9f70
0,          7,          7,        1,   599040, 0x16c51b34
0,          8,          8,        1,   599040, 0x734fe724
0,          9,          9,        1,   599040, 0x48e4e0ba
0,         10,         10,        1,   599040, 0xf1423cc1
0,         11,         11,        1,   599040, 0xb4bb68b1
0,         12,         12,        1,   599040, 0x54a77ad6
0,         13,         13,        1,   599040, 0x6e0dfce3
0,         14,         14,        1,   599040, 0x7ca687e3
0,         15,         15,        1,   599040, 0xf9ac2443
0,         16,         16,        1,   599040, 0xe35b8d34
0,         17,         17,        1,   599040, 0xef4bbe9f
0,         18,         18,        1,   599040, 0x21eb418e
0,         19,         19,        1,   599040, 0xae6df30f
0,         20,         20,        1,   599040, 0x743500af
0,         21,         21,        1,   599040, 0x7fba1ce1
0,         22,         22,        1,   599040, 0x45793eae
0,         23,         23,        1,   599040, 0x1f7e3467
0,         24,         24,        1,   599040, 0x7400c7c3
0,         25,         25,        1,   599040, 0xcf79806d
0,         26,         26,        1,   599040, 0x324ea91d
0,         27,         27,        1,   599040, 0x9c8cae92
0,         28,         28,        1,   599040, 0x70bfc368
0,         29,         29,        1,   599040, 0x46a0f8ff
0,         30,         30,        1,   599040, 0xd864208a
